<svg
    xmlns="http://www.w3.org/2000/svg"
    fill="currentColor"
    viewBox="0 0 84 86"
  >
    <path d="M76.8 85.12c-4.096 0-8.15-1.11-12.16-3.328-4.01-2.304-7.21-6.741-9.6-13.312L49 51.5s-18.42 10.02-28.5 19C10.42 79.48 5.76 84.48 5.76 84.48H0L35.84 0h3.84c6.333 15.4 10.846 26.405 15.82 38.5.257.626 7.456-1.597 12.34-4.5C73.293 30.758 82.708 23.29 83 24c.174.424-5 7.5-7.5 11S72 39.5 67 43s-8.267 3.333-7.993 4l8.833 21.48c2.133 4.95 4.139 8.363 6.016 10.24 1.877 1.792 4.565 2.859 8.064 3.2v2.56c-1.536.427-3.243.64-5.12.64ZM18 61c16-16.5 27-19 27-19L33.92 17.92S2 77.5 18 61Z" />
  </svg>